<?xml version="1.0" standalone="no"?>
<!DOCTYPE svg PUBLIC "-//W3C//DTD SVG 20010904//EN"
 "http://www.w3.org/TR/2001/REC-SVG-20010904/DTD/svg10.dtd">
<svg version="1.0" xmlns="http://www.w3.org/2000/svg"
 width="256.000000pt" height="256.000000pt" viewBox="0 0 256.000000 256.000000"
 preserveAspectRatio="xMidYMid meet">
<metadata>
Created by potrace 1.11, written by Peter Selinger 2001-2013
</metadata>
<g transform="translate(0.000000,256.000000) scale(0.100000,-0.100000)"
fill="#000000" stroke="none">
<path d="M288 2539 c-41 -6 -85 -37 -92 -64 -3 -11 -6 -551 -6 -1200 0 -1283
-3 -1206 53 -1237 26 -15 2016 -20 2057 -5 14 4 34 18 45 30 20 21 20 34 23
1207 2 1170 2 1185 -18 1218 -11 18 -32 37 -48 43 -29 12 -1947 19 -2014 8z
m125 -98 c4 0 19 -13 32 -27 35 -38 34 -87 -4 -125 -48 -47 -116 -35 -145 25
-18 39 -15 68 13 100 25 29 52 36 104 27z m1807 -6 c61 -31 71 -102 21 -147
-41 -37 -81 -37 -122 0 -51 46 -39 120 24 147 41 18 42 18 77 0z m-1574 -847
l0 -183 214 0 215 -1 5 181 5 180 39 3 c21 2 42 -1 45 -6 3 -6 6 -192 6 -414
l0 -403 -47 -3 -48 -3 -2 188 -3 188 -209 2 c-116 2 -212 -1 -215 -6 -4 -5 -6
-91 -5 -190 l1 -181 -48 0 -47 0 0 415 0 415 47 0 47 0 0 -182z m1028 35 c32
-82 64 -161 71 -178 7 -16 39 -95 70 -175 62 -160 64 -164 94 -232 12 -26 21
-54 21 -62 0 -8 4 -17 9 -20 5 -3 12 -18 16 -33 3 -15 15 -46 26 -70 10 -23
19 -45 19 -48 0 -3 -19 -5 -42 -3 l-42 3 -123 310 c-131 327 -132 330 -156
385 -12 28 -47 113 -104 258 -4 8 8 12 38 12 l44 0 59 -147z m-210 -105 c21
-30 20 -54 -4 -78 -61 -61 -143 22 -86 86 19 22 73 17 90 -8z m2 -493 c29 -44
1 -95 -52 -95 -66 0 -85 86 -25 116 29 15 58 7 77 -21z m-1049 -732 c59 -28
71 -97 24 -144 -34 -33 -69 -37 -112 -12 -29 17 -36 30 -45 77 -6 36 45 92 89
95 5 1 25 -6 44 -16z m1818 -8 c14 -11 29 -34 34 -52 17 -60 -50 -126 -110
-110 -37 10 -47 20 -63 57 -12 31 -12 39 2 70 29 59 89 75 137 35z"/>
</g>
</svg>
